<svg width="29" height="31" viewBox="0 0 29 31" fill="none" xmlns="http://www.w3.org/2000/svg">
<path fill-rule="evenodd" clip-rule="evenodd" d="M8.88125 0H20.0644C24.9762 0 28.9456 1.65848 29 5.87442V29.4031C29 29.6666 28.9275 29.9301 28.7825 30.1626C28.5469 30.5346 28.1481 30.8136 27.6588 30.9376C27.1875 31.0616 26.6619 30.9996 26.2269 30.7826L14.4819 25.7607L2.71875 30.7826C2.44869 30.905 2.13875 30.9841 1.83062 30.9841C0.815625 30.9841 0 30.2711 0 29.4031V5.87442C0 1.65848 3.9875 0 8.88125 0ZM7.64864 11.8109H21.2968C22.0761 11.8109 22.7105 11.2668 22.7105 10.5864C22.7105 9.90438 22.0761 9.36189 21.2968 9.36189H7.64864C6.86927 9.36189 6.23489 9.90438 6.23489 10.5864C6.23489 11.2668 6.86927 11.8109 7.64864 11.8109Z" fill="#474747"/>
</svg>
