<svg width="44" height="44" viewBox="0 0 44 44" fill="none" xmlns="http://www.w3.org/2000/svg">
<ellipse cx="22" cy="39.5" rx="22" ry="4.5" fill="#749FF5" fill-opacity="0.17"/>
<path d="M15.3172 37.5467V31.4312C15.3172 29.8701 16.6926 28.6046 18.3893 28.6046H24.5914C25.4062 28.6046 26.1876 28.9024 26.7637 29.4325C27.3399 29.9626 27.6635 30.6816 27.6635 31.4312V37.5467C27.6584 38.1957 27.935 38.8198 28.432 39.2804C28.9289 39.741 29.6052 40 30.3106 40H34.5419C36.5182 40.0047 38.4152 39.2857 39.8144 38.0016C41.2136 36.7175 42 34.974 42 33.1556V15.7337C42 14.2649 41.2924 12.8717 40.0679 11.9293L25.6734 1.35174C23.1695 -0.502877 19.5819 -0.442996 17.1527 1.49396L3.08671 11.9293C1.80434 12.8439 1.03788 14.2413 1 15.7337V33.1379C1 36.9277 4.33909 40 8.45806 40H12.5928C14.0579 40 15.2486 38.9124 15.2592 37.5645L15.3172 37.5467Z" fill="#3672E9"/>
</svg>
