<svg width="37" height="45" viewBox="0 0 37 45" fill="none" xmlns="http://www.w3.org/2000/svg">
<g filter="url(#filter0_d)">
<path fill-rule="evenodd" clip-rule="evenodd" d="M29.9475 13.9125C30.2471 15.5242 30.9368 17.022 31.9467 18.254C32.5746 19.2664 32.9383 20.4422 32.9998 21.6581V22.0363C33.0092 23.677 32.467 25.2659 31.4736 26.5094C30.2145 27.9694 28.5062 28.8869 26.6663 29.0912C21.2303 29.8476 15.7267 29.8476 10.2908 29.0912C8.42924 28.9024 6.69683 27.9836 5.42239 26.5094C4.46012 25.254 3.95552 23.6637 4.00308 22.0363V21.6581C4.06264 20.4467 4.41514 19.2732 5.02559 18.254C6.03998 17.0208 6.73945 15.5248 7.05536 13.9125C7.10115 13.2876 7.10115 12.6585 7.10115 12.0295C7.10115 11.4005 7.10115 10.7715 7.14693 10.1466C7.72686 4.14414 13.0684 0 18.4099 0H18.5625C23.8429 0 29.2912 4.14414 29.8559 10.1466C29.9017 10.7633 29.9017 11.3923 29.9017 12.0234C29.9017 12.6544 29.9017 13.2876 29.9475 13.9125ZM20.4854 31.6073C21.3338 31.6344 22.1667 31.8588 22.9272 32.2651H22.973C23.6083 32.8272 23.7163 33.8306 23.2172 34.5345C22.3083 35.945 20.8542 36.8343 19.2644 36.9519C17.6311 37.1631 15.9863 36.6728 14.686 35.587C14.0173 35.0897 13.5827 34.3032 13.4956 33.4327C13.4956 32.5118 14.2892 32.0842 15.0218 31.9033C15.8798 31.7073 16.7544 31.6081 17.6315 31.6073H20.4854Z" fill="#474747"/>
</g>
<defs>
<filter id="filter0_d" x="0" y="0" width="36.9999" height="45" filterUnits="userSpaceOnUse" color-interpolation-filters="sRGB">
<feFlood flood-opacity="0" result="BackgroundImageFix"/>
<feColorMatrix in="SourceAlpha" type="matrix" values="0 0 0 0 0 0 0 0 0 0 0 0 0 0 0 0 0 0 127 0"/>
<feOffset dy="4"/>
<feGaussianBlur stdDeviation="2"/>
<feColorMatrix type="matrix" values="0 0 0 0 0 0 0 0 0 0 0 0 0 0 0 0 0 0 0.25 0"/>
<feBlend mode="normal" in2="BackgroundImageFix" result="effect1_dropShadow"/>
<feBlend mode="normal" in="SourceGraphic" in2="effect1_dropShadow" result="shape"/>
</filter>
</defs>
</svg>
